<svg xmlns="http://www.w3.org/2000/svg" viewBox="0 0 200 200">
  <defs>
    <linearGradient id="grad" x1="0%" y1="0%" x2="100%" y2="100%">
      <stop offset="0%" style="stop-color:#667eea;stop-opacity:1" />
      <stop offset="100%" style="stop-color:#764ba2;stop-opacity:1" />
    </linearGradient>
  </defs>
  
  <!-- Fond avec dégradé -->
  <rect width="200" height="200" rx="40" fill="url(#grad)"/>
  
  <!-- QR Code stylisé simplifié -->
  <g fill="white">
    <!-- Coin supérieur gauche -->
    <rect x="30" y="30" width="50" height="50" rx="5"/>
    <rect x="40" y="40" width="30" height="30" rx="3" fill="#667eea"/>
    
    <!-- Coin supérieur droit -->
    <rect x="120" y="30" width="50" height="50" rx="5"/>
    <rect x="130" y="40" width="30" height="30" rx="3" fill="#667eea"/>
    
    <!-- Coin inférieur gauche -->
    <rect x="30" y="120" width="50" height="50" rx="5"/>
    <rect x="40" y="130" width="30" height="30" rx="3" fill="#667eea"/>
    
    <!-- Points décoratifs -->
    <rect x="95" y="40" width="15" height="15" rx="3"/>
    <rect x="95" y="65" width="15" height="15" rx="3"/>
    <rect x="120" y="95" width="15" height="15" rx="3"/>
    <rect x="145" y="95" width="15" height="15" rx="3"/>
    <rect x="95" y="120" width="15" height="15" rx="3"/>
    <rect x="120" y="120" width="15" height="15" rx="3"/>
    <rect x="145" y="120" width="15" height="15" rx="3"/>
    <rect x="95" y="145" width="15" height="15" rx="3"/>
    <rect x="145" y="145" width="15" height="15" rx="3"/>
  </g>
</svg>